<svg 
 xmlns="http://www.w3.org/2000/svg"
 xmlns:xlink="http://www.w3.org/1999/xlink"
 width="0.444in" height="0.444in">
<path fill-rule="evenodd"  fill="rgb(189, 209, 223)"
 d="M16.000,-0.000 C24.836,-0.000 32.000,7.163 32.000,15.999 C32.000,24.836 24.836,32.000 16.000,32.000 C7.163,32.000 -0.000,24.836 -0.000,15.999 C-0.000,7.163 7.163,-0.000 16.000,-0.000 Z"/>
<path fill-rule="evenodd"  fill="rgb(255, 255, 255)"
 d="M18.979,8.940 L17.328,8.940 C17.328,8.940 14.015,8.693 14.015,12.185 C14.015,12.932 14.015,13.991 14.015,13.991 L12.015,13.991 L12.021,15.998 L14.014,15.998 L13.984,24.012 L17.014,24.012 L17.014,16.029 L18.752,15.998 L19.376,13.991 L16.982,13.991 L16.982,11.926 C16.982,11.926 16.957,11.010 18.031,11.010 L18.969,11.010 L18.979,8.940 Z"/>
</svg>