<svg 
 xmlns="http://www.w3.org/2000/svg"
 xmlns:xlink="http://www.w3.org/1999/xlink"
 width="0.444in" height="0.444in">
<path fill-rule="evenodd"  fill="rgb(189, 209, 223)"
 d="M16.000,-0.000 C24.837,-0.000 32.000,7.163 32.000,15.999 C32.000,24.836 24.837,32.000 16.000,32.000 C7.163,32.000 -0.000,24.836 -0.000,15.999 C-0.000,7.163 7.163,-0.000 16.000,-0.000 Z"/>
<path fill-rule="evenodd"  fill="rgb(255, 255, 255)"
 d="M21.007,22.979 L21.007,16.577 C21.007,15.180 20.041,14.226 18.819,14.226 C17.886,14.226 17.348,14.869 17.103,15.490 C17.014,15.712 16.992,16.023 16.992,16.334 L16.992,22.979 L14.015,22.979 L14.015,11.987 L16.702,11.987 L17.023,13.109 C17.467,12.399 18.429,11.606 20.250,11.606 C22.471,11.606 24.006,12.901 24.006,16.096 L24.006,22.979 L21.007,22.979 ZM10.568,10.609 C9.442,10.609 8.687,9.892 8.687,8.918 C8.687,7.921 9.438,7.214 10.587,7.214 C11.737,7.214 12.441,7.921 12.464,8.918 C12.464,9.892 11.764,10.609 10.568,10.609 ZM12.007,23.010 L8.996,23.010 L8.996,11.987 L12.007,11.987 L12.007,23.010 Z"/>
</svg>