<svg 
 xmlns="http://www.w3.org/2000/svg"
 xmlns:xlink="http://www.w3.org/1999/xlink"
 width="0.444in" height="0.444in">
<path fill-rule="evenodd"  fill="rgb(189, 209, 223)"
 d="M16.000,-0.000 C24.837,-0.000 32.000,7.163 32.000,15.999 C32.000,24.836 24.837,32.000 16.000,32.000 C7.163,32.000 -0.000,24.836 -0.000,15.999 C-0.000,7.163 7.163,-0.000 16.000,-0.000 Z"/>
<path fill-rule="evenodd"  fill="rgb(255, 255, 255)"
 d="M8.609,12.178 C9.096,12.448 14.847,16.189 15.098,16.327 C15.349,16.466 15.675,16.534 16.003,16.534 C16.331,16.534 16.657,16.466 16.908,16.327 C17.159,16.189 22.910,12.448 23.397,12.178 C23.885,11.908 24.347,11.060 23.451,11.060 L8.555,11.060 C7.660,11.060 8.121,11.908 8.609,12.178 ZM23.604,14.238 C23.050,14.536 17.247,18.205 16.908,18.387 C16.569,18.570 16.331,18.594 16.003,18.594 C15.675,18.594 15.437,18.570 15.098,18.387 C14.759,18.205 8.956,14.536 8.402,14.238 C8.012,14.028 8.016,14.274 8.016,14.464 C8.016,14.654 8.016,22.019 8.016,22.019 C8.016,22.451 8.573,23.007 9.006,23.007 L23.000,23.007 C23.433,23.007 23.991,22.451 23.991,22.019 C23.991,22.019 23.991,14.654 23.991,14.464 C23.991,14.274 23.994,14.028 23.604,14.238 Z"/>
</svg>