<svg 
 xmlns="http://www.w3.org/2000/svg"
 xmlns:xlink="http://www.w3.org/1999/xlink"
 width="118px" height="37px">
<path fill-rule="evenodd"  fill="rgb(255, 255, 255)"
 d="M117.385,30.001 L117.024,34.386 C114.840,36.107 112.685,36.988 110.568,36.988 C107.434,36.988 105.444,35.548 104.766,33.473 C102.988,35.591 100.744,36.988 97.526,36.988 C95.082,36.988 93.171,35.813 91.889,33.926 C90.084,34.957 86.084,37.052 81.223,36.988 C78.090,36.946 76.099,35.548 75.422,33.473 C73.643,35.548 71.484,36.988 68.181,36.988 C65.778,36.988 63.889,35.855 62.607,34.023 C57.531,36.373 54.412,36.988 52.345,36.988 C49.126,36.988 47.220,35.675 46.501,33.770 C44.172,35.929 41.716,36.988 38.921,36.988 C35.736,36.988 33.455,35.321 32.620,32.767 C27.822,35.311 23.439,36.798 17.762,36.988 C7.724,37.323 0.983,31.397 0.983,21.042 C0.983,8.928 9.309,0.573 21.682,0.709 C27.703,0.775 31.871,2.760 33.724,4.017 L30.371,11.648 C28.870,10.923 26.048,10.413 23.667,10.413 C17.557,10.413 14.575,14.378 14.404,19.500 C14.228,24.793 17.499,28.298 22.344,28.763 C27.133,29.222 30.553,28.121 32.646,27.199 L34.517,13.994 L44.765,13.994 L42.943,26.825 C42.774,27.969 43.494,28.900 44.553,28.900 C45.569,28.900 46.543,27.969 46.712,26.825 L48.533,13.994 L58.781,13.994 L56.791,28.265 C56.548,30.002 57.160,31.100 60.896,29.586 C60.762,28.785 60.686,27.948 60.686,27.079 C60.686,19.330 65.640,13.443 71.822,13.443 C74.278,13.443 75.930,14.502 77.158,16.196 L78.682,5.144 L88.930,5.144 L85.669,28.434 C85.463,30.048 86.189,31.255 90.172,29.170 C90.080,28.496 90.030,27.798 90.030,27.079 C90.030,19.499 94.984,13.443 101.167,13.443 C103.623,13.443 105.274,14.502 106.503,16.196 L106.799,13.994 L117.047,13.994 L115.014,28.434 C114.802,30.086 115.819,30.382 117.385,30.001 ZM74.278,21.405 C72.288,21.405 70.721,23.437 70.721,25.767 C70.721,27.544 71.653,28.942 73.220,28.942 C75.168,28.942 76.777,26.910 76.777,24.581 C76.777,22.802 75.803,21.405 74.278,21.405 ZM103.623,21.405 C101.633,21.405 100.066,23.437 100.066,25.767 C100.066,27.544 100.998,28.942 102.564,28.942 C104.512,28.942 106.122,26.910 106.122,24.581 C106.122,22.802 105.148,21.405 103.623,21.405 Z"/>
</svg>