<svg 
 xmlns="http://www.w3.org/2000/svg"
 xmlns:xlink="http://www.w3.org/1999/xlink"
 width="0.444in" height="0.444in">
<path fill-rule="evenodd"  fill="rgb(189, 209, 223)"
 d="M16.000,-0.000 C24.836,-0.000 32.000,7.163 32.000,15.999 C32.000,24.836 24.836,32.000 16.000,32.000 C7.163,32.000 -0.000,24.836 -0.000,15.999 C-0.000,7.163 7.163,-0.000 16.000,-0.000 Z"/>
<path fill-rule="evenodd"  fill="rgb(255, 255, 255)"
 d="M24.984,11.656 C24.360,11.937 23.689,12.127 22.985,12.212 C23.704,11.774 24.256,11.082 24.516,10.256 C23.843,10.662 23.098,10.956 22.305,11.114 C21.670,10.427 20.765,9.998 19.764,9.998 C17.841,9.998 16.282,11.581 16.282,13.533 C16.282,13.810 16.313,14.080 16.372,14.338 C13.479,14.191 10.913,12.784 9.197,10.645 C8.897,11.167 8.725,11.774 8.725,12.422 C8.725,13.648 9.340,14.730 10.274,15.364 C9.704,15.346 9.166,15.187 8.697,14.923 C8.697,14.937 8.697,14.952 8.697,14.967 C8.697,16.680 9.897,18.108 11.489,18.433 C11.198,18.514 10.890,18.557 10.572,18.557 C10.348,18.557 10.130,18.535 9.917,18.494 C10.360,19.898 11.646,20.921 13.170,20.949 C11.978,21.897 10.477,22.462 8.846,22.462 C8.565,22.462 8.288,22.445 8.016,22.412 C9.556,23.416 11.386,24.001 13.352,24.001 C19.755,24.001 23.257,18.614 23.257,13.943 C23.257,13.790 23.254,13.637 23.247,13.485 C23.927,12.987 24.517,12.365 24.984,11.656 Z"/>
</svg>